PathFileType	4	(X/Y/Z)	/Users/itak/Documents/Research/Walk-IL/dataset/trc/00415_00012.trc
DataRate	CameraRate	NumFrames	NumMarkers	Units	OrigDataRate	OrigDataStartFrame	OrigNumFrames
100.000000	100.000000	4	53	mm	100.000000	0	924
Frame#	Time	RPSI			LPSI			L3			STRN			T10			C7			CLAV			RBAK			LBAK			LSHO			LUPA			LAEL			LAOL			LWTS			LWPS			LFRA			LIFD			LHPS			LHTS			RSHO			RUPA			RAEL			RAOL			RWTS			RWPS			RFRA			RIFD			RHTS			RHPS			RBHD			LFHD			RFHD			LBHD			LHIP			RHIP			RASI			LASI			LKNE			LTHI			LANK			LTIP			LTOE			LMT1			LMT5			LHEE			RKNE			RTHI			RANK			RTIP			RTOE			RMT1			RMT5			RHEE			
		X1	Y1	Z1	X2	Y2	Z2	X3	Y3	Z3	X4	Y4	Z4	X5	Y5	Z5	X6	Y6	Z6	X7	Y7	Z7	X8	Y8	Z8	X9	Y9	Z9	X10	Y10	Z10	X11	Y11	Z11	X12	Y12	Z12	X13	Y13	Z13	X14	Y14	Z14	X15	Y15	Z15	X16	Y16	Z16	X17	Y17	Z17	X18	Y18	Z18	X19	Y19	Z19	X20	Y20	Z20	X21	Y21	Z21	X22	Y22	Z22	X23	Y23	Z23	X24	Y24	Z24	X25	Y25	Z25	X26	Y26	Z26	X27	Y27	Z27	X28	Y28	Z28	X29	Y29	Z29	X30	Y30	Z30	X31	Y31	Z31	X32	Y32	Z32	X33	Y33	Z33	X34	Y34	Z34	X35	Y35	Z35	X36	Y36	Z36	X37	Y37	Z37	X38	Y38	Z38	X39	Y39	Z39	X40	Y40	Z40	X41	Y41	Z41	X42	Y42	Z42	X43	Y43	Z43	X44	Y44	Z44	X45	Y45	Z45	X46	Y46	Z46	X47	Y47	Z47	X48	Y48	Z48	X49	Y49	Z49	X50	Y50	Z50	X51	Y51	Z51	X52	Y52	Z52	X53	Y53	Z53	

1	0	-1577.530639648438	990.6517333984375	-606.1812744140625	-1592.386840820312	982.8958129882812	-736.5669555664062	-1584.995727539062	1057.823608398438	-669.3759155273438	-1348.970336914062	1216.177001953125	-680.6692504882812	-1596.672607421875	1161.430786132812	-671.9708251953125	-1562.902954101562	1410.341918945312	-685.0233764648438	-1404.569946289062	1333.800903320312	-679.6771850585938	-1599.947875976562	1264.364624023438	-614.68603515625	-1574.928955078125	1372.630859375	-789.1743774414062	-1488.335205078125	1388.94775390625	-838.9379272460938	-1500.010375976562	1271.479858398438	-910.23046875	-1462.00146484375	1074.262451171875	-927.5400390625	-1524.451782226562	1050.335571289062	-875.611328125	-1358.017211914062	868.5430297851562	-860.7454833984375	-1398.46875	847.1849975585938	-929.1513061523438	-1434.799560546875	971.2741088867188	-930.4544067382812	-1344.98291015625	688.392578125	-857.7318725585938	-1377.578979492188	764.0161743164062	-914.3909912109375	-1330.709350585938	773.246826171875	-871.405029296875	-1498.11279296875	1390.429931640625	-526.5460205078125	-1501.96826171875	1325.150024414062	-465.6790771484375	-1471.157348632812	1060.575317382812	-431.2040710449219	-1504.41748046875	1052.4541015625	-518.0037231445312	-1342.016479492188	852.8616333007812	-504.2698669433594	-1364.349975585938	836.7454833984375	-435.9672241210938	-1438.325439453125	996.2530517578125	-424.2157897949219	-1328.22509765625	677.2557373046875	-502.2832641601562	-1316.953857421875	748.9302978515625	-495.9588623046875	-1356.2119140625	751.1859130859375	-441.6680297851562	-1522.316650390625	1616.634887695312	-636.6739501953125	-1355.232055664062	1588.1826171875	-746.5499877929688	-1389.07666015625	1618.010620117188	-631.0264892578125	-1499.307250976562	1576.759521484375	-791.731201171875	-1513.232788085938	970.934326171875	-855.583251953125	-1486.692993164062	965.9661254882812	-497.7847595214844	-1358.638061523438	973.8984375	-562.1610717773438	-1396.218505859375	968.3125610351562	-822.4962768554688	-1468.665283203125	476.0461120605469	-835.4613037109375	-1474.355102539062	618.459228515625	-846.538818359375	-1560.95947265625	44.66097640991211	-781.708740234375	-1517.844970703125	246.1279907226562	-821.2232666015625	-1343.099243164062	43.46118545532227	-739.8116455078125	-1419.599487304688	44.46660232543945	-701.9761352539062	-1435.698486328125	43.13028717041016	-806.6165771484375	-1591.9599609375	40.11136627197266	-721.4647216796875	-1461.19921875	475.3756713867188	-523.2364501953125	-1413.895629882812	738.7929077148438	-505.1033935546875	-1521.5068359375	58.82480621337891	-555.00537109375	-1455.833129882812	349.5785827636719	-539.5	-1341.172241210938	39.73236465454102	-618.0236206054688	-1418.01806640625	43.60373687744141	-647.3793334960938	-1437.83154296875	48.32773208618164	-549.7583618164062	-1594.6494140625	44.94311904907227	-608.51953125	
2	0.01	-1577.467041015625	990.6668701171875	-606.1762084960938	-1592.347778320312	982.9076538085938	-736.5704345703125	-1584.949951171875	1057.836181640625	-669.3811645507812	-1348.917114257812	1216.16845703125	-680.6602172851562	-1596.572387695312	1161.444946289062	-671.9657592773438	-1562.754638671875	1410.361938476562	-685.0213623046875	-1404.452758789062	1333.780029296875	-679.650634765625	-1599.86865234375	1264.389038085938	-614.691162109375	-1574.822631835938	1372.6484375	-789.1714477539062	-1488.2158203125	1388.939086914062	-838.9269409179688	-1499.903930664062	1271.484619140625	-910.2315673828125	-1461.942749023438	1074.2490234375	-927.5328369140625	-1524.426879882812	1050.34033203125	-875.6018676757812	-1357.890014648438	868.6351928710938	-860.8509521484375	-1398.47412109375	847.1661987304688	-929.1477661132812	-1434.758178710938	971.2535400390625	-930.4403686523438	-1345.2294921875	688.3320922851562	-857.843017578125	-1377.588623046875	763.9878540039062	-914.3821411132812	-1330.73681640625	773.2157592773438	-871.3982543945312	-1497.973999023438	1390.43798828125	-526.5304565429688	-1501.893676757812	1325.155517578125	-465.6894836425781	-1471.126342773438	1060.572143554688	-431.2210693359375	-1504.3798828125	1052.454833984375	-518.01708984375	-1342.006591796875	852.8569946289062	-504.2863464355469	-1364.322998046875	836.732421875	-436.0171813964844	-1438.30517578125	996.24658203125	-424.2307739257812	-1328.19677734375	677.2254028320312	-502.3003234863281	-1317.164672851562	748.8785400390625	-496.0716247558594	-1356.181274414062	751.1489868164062	-441.7099609375	-1522.130126953125	1616.613159179688	-636.623291015625	-1355.011352539062	1588.252807617188	-746.4170532226562	-1389.037719726562	1618.001342773438	-630.977783203125	-1499.078369140625	1576.724853515625	-791.674072265625	-1513.170166015625	970.9354858398438	-855.58203125	-1486.6435546875	965.9698486328125	-497.7872619628906	-1358.62841796875	973.8961791992188	-562.1581420898438	-1396.265014648438	968.3119506835938	-822.5262451171875	-1468.643676757812	476.0388488769531	-835.458740234375	-1474.3486328125	618.4579467773438	-846.533203125	-1560.959838867188	44.66402435302734	-781.7064208984375	-1517.842651367188	246.1266937255859	-821.222900390625	-1343.091918945312	43.46498870849609	-739.8107299804688	-1419.595458984375	44.47017288208008	-701.9821166992188	-1435.701538085938	43.13028335571289	-806.6152954101562	-1591.957885742188	40.11067581176758	-721.4650268554688	-1461.206420898438	475.374755859375	-523.228759765625	-1414.05224609375	738.9486694335938	-504.7431335449219	-1521.506591796875	58.82028579711914	-555.0103759765625	-1455.837768554688	349.5708618164062	-539.4844360351562	-1341.168823242188	39.73269271850586	-618.0226440429688	-1418.012329101562	43.60884857177734	-647.3799438476562	-1437.739624023438	48.30742263793945	-549.7621459960938	-1594.689575195312	44.93932723999023	-608.517822265625	
3	0.02	-1577.385009765625	990.6868896484375	-606.169189453125	-1592.293701171875	982.9248046875	-736.5730590820312	-1584.889892578125	1057.850708007812	-669.387939453125	-1348.855834960938	1216.155883789062	-680.6517333984375	-1596.461669921875	1161.462280273438	-671.9631958007812	-1562.573486328125	1410.38525390625	-685.0194091796875	-1404.29736328125	1333.755493164062	-679.6166381835938	-1599.7685546875	1264.415771484375	-614.70068359375	-1574.694213867188	1372.66943359375	-789.1691284179688	-1488.077270507812	1388.92822265625	-838.9152221679688	-1499.771362304688	1271.488647460938	-910.2315673828125	-1461.868896484375	1074.232299804688	-927.5243530273438	-1524.396606445312	1050.344360351562	-875.5884399414062	-1358.13427734375	868.5455932617188	-860.7979125976562	-1398.474975585938	847.140380859375	-929.141357421875	-1434.712280273438	971.2288208007812	-930.4248046875	-1345.495483398438	688.2632446289062	-857.9508666992188	-1377.603515625	763.9505004882812	-914.3696899414062	-1330.778564453125	773.1708374023438	-871.38720703125	-1497.800170898438	1390.446533203125	-526.51171875	-1501.803588867188	1325.161010742188	-465.7026977539062	-1471.082153320312	1060.566040039062	-431.2405700683594	-1504.332153320312	1052.455200195312	-518.0357666015625	-1341.985961914062	852.8508911132812	-504.2964477539062	-1364.298828125	836.7125854492188	-436.0695190429688	-1438.281005859375	996.2362060546875	-424.2485961914062	-1328.19287109375	677.1882934570312	-502.3235473632812	-1317.32470703125	748.8125	-496.2268371582031	-1356.145751953125	751.1095581054688	-441.7927551269531	-1521.906494140625	1616.587158203125	-636.561279296875	-1354.778076171875	1588.30908203125	-746.2648315429688	-1388.979614257812	1617.988403320312	-630.9105224609375	-1498.783569335938	1576.682006835938	-791.605712890625	-1513.091186523438	970.93603515625	-855.5806274414062	-1486.57861328125	965.9729614257812	-497.7895202636719	-1358.616455078125	973.8923950195312	-562.1514282226562	-1396.304077148438	968.2994995117188	-822.552001953125	-1468.623291015625	476.0313415527344	-835.455078125	-1474.340576171875	618.4561767578125	-846.5278930664062	-1560.960205078125	44.66793060302734	-781.704833984375	-1517.840576171875	246.1255340576172	-821.222412109375	-1343.086303710938	43.46863174438477	-739.8106079101562	-1419.592529296875	44.47329330444336	-701.9878540039062	-1435.705322265625	43.13024139404297	-806.613525390625	-1591.95556640625	40.11018753051758	-721.465087890625	-1461.217163085938	475.3735961914062	-523.218505859375	-1414.08251953125	738.9722900390625	-504.6559143066406	-1521.506958007812	58.81664276123047	-555.0143432617188	-1455.851440429688	349.564697265625	-539.467041015625	-1341.164306640625	39.73315811157227	-618.0211181640625	-1418.008056640625	43.61370849609375	-647.3799438476562	-1437.66259765625	48.29288101196289	-549.767578125	-1594.736328125	44.93393325805664	-608.5157470703125	
4	0.03	-1577.286743164062	990.7115478515625	-606.1602783203125	-1592.22412109375	982.9476928710938	-736.5740356445312	-1584.816040039062	1057.865966796875	-669.3956909179688	-1348.789916992188	1216.138916015625	-680.6448364257812	-1596.3486328125	1161.481811523438	-671.9642944335938	-1562.371337890625	1410.409912109375	-685.0185546875	-1404.106689453125	1333.731079101562	-679.5772705078125	-1599.65185546875	1264.442016601562	-614.7156982421875	-1574.55029296875	1372.692626953125	-789.1681518554688	-1487.927368164062	1388.915771484375	-838.9039916992188	-1499.619384765625	1271.49072265625	-910.2296752929688	-1461.782836914062	1074.213012695312	-927.5149536132812	-1524.362060546875	1050.3466796875	-875.5712280273438	-1358.646606445312	868.3170776367188	-860.6216430664062	-1398.469116210938	847.1076049804688	-929.1318359375	-1434.666137695312	971.201416015625	-930.4091796875	-1345.71923828125	688.1957397460938	-858.01953125	-1377.624267578125	763.9049072265625	-914.3538818359375	-1330.836669921875	773.1095581054688	-871.3716430664062	-1497.597900390625	1390.454711914062	-526.4908447265625	-1501.702758789062	1325.1650390625	-465.7178039550781	-1471.024780273438	1060.556396484375	-431.2609558105469	-1504.275390625	1052.454833984375	-518.0598754882812	-1341.949829101562	852.844970703125	-504.2951965332031	-1364.281372070312	836.6840209960938	-436.1175231933594	-1438.254516601562	996.2215576171875	-424.267822265625	-1328.198486328125	677.1480102539062	-502.3449096679688	-1317.390991210938	748.7381591796875	-496.3909912109375	-1356.11328125	751.0725708007812	-441.8914184570312	-1521.658325195312	1616.55810546875	-636.4908447265625	-1354.552856445312	1588.340698242188	-746.1030883789062	-1388.899047851562	1617.97119140625	-630.82373046875	-1498.433349609375	1576.635131835938	-791.5303955078125	-1512.999633789062	970.9361572265625	-855.5792236328125	-1486.50048828125	965.9754028320312	-497.7914123535156	-1358.601318359375	973.8857421875	-562.1419677734375	-1396.329956054688	968.2724609375	-822.5697631835938	-1468.609619140625	476.0250244140625	-835.4503784179688	-1474.330322265625	618.453857421875	-846.5236206054688	-1560.960571289062	44.67280197143555	-781.70458984375	-1517.83935546875	246.1247253417969	-821.2218627929688	-1343.082641601562	43.47131729125977	-739.8115844726562	-1419.591918945312	44.47537994384766	-701.9927368164062	-1435.709228515625	43.13019180297852	-806.6115112304688	-1591.953491210938	40.11032104492188	-721.4647827148438	-1461.232421875	475.3725280761719	-523.205810546875	-1413.961669921875	738.8429565429688	-504.8837585449219	-1521.50830078125	58.81528091430664	-555.0157470703125	-1455.87548828125	349.5604553222656	-539.4485473632812	-1341.159301757812	39.73342514038086	-618.019287109375	-1418.004760742188	43.61829376220703	-647.3792114257812	-1437.607666015625	48.28547286987305	-549.7740478515625	-1594.788696289062	44.92716979980469	-608.5133056640625	
